<svg width="20" height="20" viewBox="0 0 20 20" fill="none" xmlns="http://www.w3.org/2000/svg">
<g clip-path="url(#clip0_21_28)">
<path d="M9.37184 0.0541195C8.51957 0.205635 7.72411 0.672806 7.17487 1.33253C6.875 1.69238 6.53409 2.36473 6.42992 2.8098C6.37626 3.0276 6.34154 3.34642 6.32575 3.73468L6.30366 4.33127H4.81376C3.34595 4.33127 3.3207 4.33442 3.17234 4.41965C3.08712 4.467 2.98926 4.56801 2.94823 4.64377C2.89457 4.75425 2.72095 6.29781 2.10858 12.1438L1.33838 19.5049L1.42361 19.669C1.47411 19.7669 1.56881 19.8679 1.65719 19.9152L1.80871 20.0005H18.2102L18.3617 19.9121C18.5322 19.8142 18.6585 19.6122 18.6585 19.4354C18.6585 19.3723 18.3144 16.0516 17.8977 12.0554C17.3453 6.81233 17.1149 4.75109 17.0707 4.65955C17.0391 4.5901 16.9539 4.49225 16.8876 4.44175C16.7677 4.35652 16.7456 4.35652 15.2399 4.34389L13.7121 4.33127L13.69 3.73783C13.6616 3.07495 13.6079 2.76561 13.428 2.31422C13.0524 1.37356 12.2317 0.571796 11.291 0.230887C10.666 0.00677103 9.98106 -0.0563603 9.37184 0.0541195ZM10.3883 1.22205C10.8744 1.27255 11.4931 1.60399 11.8624 2.01435C12.1023 2.28897 12.3516 2.75298 12.4274 3.08442C12.4621 3.23594 12.4874 3.52634 12.4874 3.82937V4.32811H7.51578L7.53156 3.75046C7.55366 3.09705 7.61679 2.84137 7.863 2.41523C8.15972 1.90702 8.76893 1.43038 9.32133 1.27887C9.51704 1.22836 9.96212 1.1747 10.0821 1.19048C10.1263 1.1968 10.262 1.20942 10.3883 1.22205ZM6.31944 6.26308C6.33207 7.10589 6.34154 7.13745 6.62878 7.33316C6.73926 7.40892 6.79924 7.42154 6.96022 7.41207C7.20012 7.39313 7.33901 7.29844 7.44633 7.08379C7.51578 6.94175 7.52525 6.85021 7.52525 6.21574V5.50551H12.4811L12.4968 6.26308C12.5095 6.96384 12.5158 7.03329 12.5915 7.1343C12.8819 7.52571 13.3965 7.51308 13.6111 7.10589C13.6963 6.94806 13.6995 6.89124 13.6995 6.21889V5.50235H16.0006L16.0227 5.62861C16.0353 5.69806 16.3384 8.61472 16.7077 12.1059C17.0707 15.6002 17.38 18.539 17.3958 18.64L17.4179 18.8262H10.0316C5.96906 18.8262 2.63573 18.8136 2.62626 18.7947C2.61363 18.7757 3.93623 6.03266 4.00568 5.50867C4.00568 5.50551 4.5202 5.50235 5.15467 5.50235H6.30366L6.31944 6.25993V6.26308Z" fill="white"/>
</g>
<defs>
<clipPath id="clip0_21_28">
<rect width="17.3232" height="20" fill="white" transform="translate(1.33838)"/>
</clipPath>
</defs>
</svg>
