<svg width="46" height="25" viewBox="0 0 46 25" fill="none" xmlns="http://www.w3.org/2000/svg">
<path d="M0.5 0.700195H44.7C45 0.700195 45.2 0.900195 45.2 1.2002V3.6002C45.2 3.9002 45 4.1002 44.7 4.1002H0.5C0.2 4.1002 0 3.9002 0 3.6002V1.2002C0 0.900195 0.2 0.700195 0.5 0.700195ZM0.5 11.1002H44.7C45 11.1002 45.2 11.3002 45.2 11.6002V14.1002C45.2 14.3002 45 14.6002 44.7 14.6002H0.5C0.2 14.6002 0 14.3002 0 14.1002V11.6002C0 11.3002 0.2 11.1002 0.5 11.1002ZM0.5 21.5002H44.7C45 21.5002 45.2 21.7002 45.2 22.0002V24.5002C45.2 24.8002 45 25.0002 44.7 25.0002H0.5C0.2 25.0002 0 24.8002 0 24.5002V22.0002C0 21.7002 0.2 21.5002 0.5 21.5002Z" fill="white"/>
</svg>
