<svg width="20" height="20" viewBox="0 0 20 20" fill="none" xmlns="http://www.w3.org/2000/svg">
<g clip-path="url(#clip0_21_21)">
<path d="M5.19285 1.039C4.25281 1.13555 3.18065 1.55221 2.40321 2.10608C1.98147 2.40587 1.25992 3.15282 0.975369 3.58981C-0.391501 5.66299 -0.315282 8.3764 1.16338 10.3327C1.35139 10.5715 3.34834 12.6142 5.6146 14.8805L9.73553 18.9912H10.3707L14.5628 14.7941C17.2762 12.0705 18.8412 10.4648 18.9987 10.226C19.3697 9.67213 19.6847 8.97091 19.8524 8.32559C19.9794 7.84794 20.0048 7.60404 20.0099 6.95872C20.0201 5.90181 19.8575 5.18534 19.4052 4.26055C18.6075 2.64977 17.0272 1.48107 15.2132 1.17112C14.5018 1.04916 13.4703 1.08473 12.7843 1.2575C12.0983 1.43026 11.1126 1.93331 10.5282 2.39571L10.0455 2.77681L9.65423 2.44652C8.99874 1.88758 8.42456 1.55729 7.66744 1.30831C6.91033 1.05425 5.96521 0.95262 5.19285 1.039ZM15.1522 2.57864C15.955 2.75648 16.7426 3.19855 17.3676 3.82355C18.7091 5.16502 19.0292 7.07559 18.1857 8.79307C18.0587 9.04713 17.825 9.42823 17.6674 9.63656C17.5048 9.8449 15.7264 11.6589 13.7091 13.6762L10.0404 17.3347L6.28533 13.5847C4.22232 11.5217 2.41846 9.67213 2.27618 9.47396C1.97639 9.05729 1.72232 8.52884 1.58004 8.00038C1.43269 7.48209 1.43269 6.31847 1.58004 5.80526C1.9459 4.46888 2.78939 3.46786 4.05972 2.86319C4.6898 2.56847 5.22334 2.46685 6.03126 2.50242C7.28634 2.55323 8.32293 3.03595 9.2833 4.01664C9.89813 4.64673 10.1725 4.65181 10.767 4.04713C12.078 2.71075 13.5414 2.22294 15.1471 2.57864H15.1522Z" fill="white"/>
</g>
<defs>
<clipPath id="clip0_21_21">
<rect width="20" height="17.9827" fill="white" transform="translate(0 1.00879)"/>
</clipPath>
</defs>
</svg>
