<svg width="12" height="12" viewBox="0 0 12 12" fill="none" xmlns="http://www.w3.org/2000/svg">
<g clip-path="url(#clip0_22_35)">
<g clip-path="url(#clip1_22_35)">
<path d="M5.01189 0.00298729C4.14715 0.100935 3.61264 0.249256 2.98857 0.562689C2.46805 0.82295 2.08185 1.0972 1.65928 1.50019C-0.0422138 3.13452 -0.487177 5.68116 0.565062 7.77724C1.71525 10.0692 4.27029 11.2362 6.74137 10.6009C7.42141 10.4246 8.00909 10.1364 8.70592 9.63265C8.7367 9.61306 9.01655 9.87612 9.90368 10.7577C10.7582 11.6084 11.2824 12.0216 11.4764 11.9974C11.8458 11.9526 12.0753 11.5972 11.9774 11.2278C11.9438 11.1047 11.8486 11.0011 10.7712 9.9181C9.88129 9.02538 9.61264 8.73713 9.63223 8.70635C10.1807 7.95355 10.4998 7.25112 10.6733 6.43676C10.7628 6.00579 10.7964 5.19982 10.7432 4.76885C10.6481 4.00485 10.3934 3.24646 10.024 2.63638C9.45592 1.70168 8.68913 0.999256 7.72085 0.529107C7.18913 0.274442 6.75256 0.137316 6.19566 0.0505619C5.9242 0.0085843 5.19659 -0.0249978 5.01189 -0.00260973V0.00298729ZM6.22644 1.27351C7.32626 1.50579 8.24417 2.12146 8.85984 3.03937C9.81413 4.46101 9.81413 6.28284 8.86544 7.71847C8.61357 8.09907 8.09864 8.61399 7.71805 8.86586C6.92047 9.39478 5.99417 9.63545 5.05947 9.55989C3.58185 9.43956 2.30853 8.58601 1.65088 7.27631C1.18091 6.34448 1.07386 5.27128 1.35052 4.26498C1.62717 3.25867 2.2678 2.39103 3.14808 1.83041C3.60984 1.53657 4.26189 1.2987 4.84678 1.21754C5.15182 1.17556 5.91581 1.20355 6.22924 1.27071L6.22644 1.27351Z" fill="white"/>
</g>
</g>
<defs>
<clipPath id="clip0_22_35">
<rect width="12" height="12" fill="white"/>
</clipPath>
<clipPath id="clip1_22_35">
<rect width="12" height="12.0112" fill="white" transform="translate(0 -0.00585938)"/>
</clipPath>
</defs>
</svg>
