<svg width="20" height="20" viewBox="0 0 20 20" fill="none" xmlns="http://www.w3.org/2000/svg">
<g clip-path="url(#clip0_21_16)">
<g clip-path="url(#clip1_21_16)">
<path d="M9.26856 0.0286782C8.33345 0.145567 7.37416 0.508324 6.58416 1.04037C5.24599 1.9392 4.3391 3.28543 3.98037 4.90171C3.90782 5.22819 3.89573 5.40957 3.8917 6.12703C3.8917 6.86463 3.90379 7.01376 3.98037 7.36846C4.25042 8.57765 4.75828 9.52888 5.58456 10.3955C5.81028 10.6292 5.98763 10.8267 5.97956 10.8348C5.9715 10.8348 5.80625 10.9275 5.61278 11.0283C2.90419 12.4672 1.03801 15.1476 0.643007 18.1665C0.610762 18.3922 0.578517 18.8961 0.562394 19.287L0.53418 20.0005H1.78368L1.81189 19.3233C1.82398 18.9565 1.86429 18.4688 1.89653 18.2391C2.28347 15.5869 3.96828 13.2492 6.35441 12.0521C6.78166 11.8425 7.18069 11.6732 7.26937 11.6732C7.30967 11.6732 7.45075 11.7256 7.58779 11.786C8.30927 12.1125 9.09927 12.2737 10.0062 12.2737C10.9131 12.2737 11.4653 12.1649 12.3439 11.8223C12.8195 11.6288 12.7833 11.6288 13.6015 12.0279C15.5362 12.9912 17.0275 14.672 17.7289 16.6913C18.0312 17.5539 18.1601 18.2754 18.1964 19.3273L18.2246 20.0005H19.462V19.678C19.462 17.0339 18.6196 14.8332 16.8945 12.9388C16.2899 12.2697 15.2702 11.4878 14.3996 11.0283C14.2061 10.9275 14.0408 10.8348 14.0328 10.8348C14.0247 10.8267 14.2021 10.6333 14.4278 10.3955C15.3024 9.47648 15.8506 8.38821 16.0642 7.13871C16.1327 6.72356 16.1448 6.55427 16.1287 5.94968C16.1126 5.44988 16.0844 5.13952 16.0279 4.88156C15.4878 2.439 13.6297 0.609089 11.171 0.10123C10.7115 0.00852508 9.73611 -0.0317812 9.26856 0.0286782ZM10.9614 1.33863C11.9489 1.5442 12.7188 1.95935 13.4483 2.6889C14.4157 3.64416 14.8913 4.79289 14.8913 6.14718C14.8913 8.5051 13.2871 10.4479 10.9252 10.9598C10.4939 11.0525 9.51846 11.0525 9.08718 10.9598C7.53942 10.6252 6.31008 9.6901 5.61681 8.31566C4.96788 7.02989 4.95175 5.40554 5.56844 4.0714C6.14885 2.80982 7.39029 1.76588 8.71636 1.41925C9.41366 1.23384 10.3125 1.20562 10.9655 1.34266L10.9614 1.33863Z" fill="white"/>
</g>
</g>
<defs>
<clipPath id="clip0_21_16">
<rect width="20" height="20" fill="white"/>
</clipPath>
<clipPath id="clip1_21_16">
<rect width="18.9319" height="20" fill="white" transform="translate(0.53418)"/>
</clipPath>
</defs>
</svg>
