<svg width="60" height="54" viewBox="0 0 60 54" fill="none" xmlns="http://www.w3.org/2000/svg">
<mask id="mask0_20_3" style="mask-type:luminance" maskUnits="userSpaceOnUse" x="0" y="0" width="60" height="54">
<path d="M60 0H0V54H60V0Z" fill="white"/>
</mask>
<g mask="url(#mask0_20_3)">
<mask id="mask1_20_3" style="mask-type:luminance" maskUnits="userSpaceOnUse" x="0" y="-1" width="60" height="56">
<path d="M60 -0.90918H0V54.9092H60V-0.90918Z" fill="white"/>
</mask>
<g mask="url(#mask1_20_3)">
<path d="M44.8473 37.0394C44.9112 36.0637 45.1028 35.1403 45.2712 34.3214C45.4687 33.3631 45.6778 32.37 45.5152 31.8937C45.4106 31.5801 45.1609 31.2781 44.8995 31.0342C43.1921 32.3584 41.1535 34.0891 39.1789 35.2622C34.5327 39.891 36.0137 48.4343 36.4899 49.2067C36.699 49.5435 36.728 49.863 36.6816 50.1359L34.9334 49.41C34.8521 49.3577 34.7592 49.3286 34.7011 49.317C33.9926 49.108 32.3257 52.8714 34.1784 54.9041H36.8326C36.8326 54.9041 39.2079 54.8576 41.2987 53.3128C43.1282 51.9538 45.1493 48.1903 46.5199 44.7812C45.5326 42.6323 44.673 39.8794 44.8531 37.0394H44.8473Z" fill="white"/>
<path d="M24.7582 51.6452C23.7941 50.9831 24.6537 49.6183 24.6653 47.2313C24.6769 44.8443 23.0507 43.2239 23.0507 43.2239C24.5375 42.3992 25.0196 40.3723 25.1415 38.6242C24.2181 38.4674 23.3702 38.2177 22.6093 37.875C21.8311 39.989 20.2514 43.0904 17.3649 44.49C17.1849 45.3147 16.8016 46.5518 15.9885 48.0618C15.6981 48.6019 15.3206 49.084 14.9082 49.5138C15.3613 51.4942 16.0408 53.4224 16.4589 53.4979C17.1791 53.6257 19.0201 54.9034 19.0201 54.9034H28.4461C28.1906 53.0449 25.7223 52.2957 24.7524 51.6394L24.7582 51.6452Z" fill="white"/>
<path d="M55.8591 29.826C57.0322 27.1544 55.8533 24.0531 54.924 22.2759L56.5386 21.1492L57.4446 21.1144C59.0882 21.1144 59.4773 19.1572 59.4773 19.1572C59.9826 18.4138 60.0755 17.6762 59.9419 17.0199C59.9652 16.5959 59.8432 16.4333 59.6864 16.2765C59.245 15.3763 58.7455 14.7607 57.7292 14.6329L58.2693 12.0194C58.2983 11.8452 58.217 11.6477 58.066 11.4154C58.037 11.3748 58.0138 11.3341 57.9847 11.2934L56.5328 9.19102C56.4399 9.02841 56.3353 8.8774 56.225 8.74963C55.3015 7.66358 53.8206 7.63454 53.5127 7.01892C53.4256 6.84469 53.2746 6.61238 53.0655 6.35103H53.0888C53.112 6.30457 53.1294 6.2581 53.1527 6.21164C53.9135 4.67839 54.6743 3.15095 55.4293 1.6177C55.4583 1.55962 55.5048 1.51316 55.4932 1.44347C55.4642 1.44347 55.4293 1.44347 55.4003 1.45508C54.6975 1.65255 54.0006 1.85582 53.2979 2.05328C53.1991 2.08232 53.1933 2.13459 53.2107 2.2159C53.3676 2.94768 52.7113 3.72011 51.8808 3.60396C51.4103 3.53426 51.0851 3.27872 50.9167 2.84314C50.7424 2.39013 50.8296 1.97197 51.1548 1.6177C51.2419 1.52478 51.2245 1.47831 51.1548 1.40281C50.8702 1.07758 50.5914 0.752341 50.3069 0.427107C49.9352 0.00314021 49.5693 -0.420827 49.2034 -0.850601C49.1395 -0.926102 49.0988 -0.926102 49.035 -0.850601C48.9362 -0.72283 48.8259 -0.600867 48.7155 -0.478904C48.1638 0.154142 47.6179 0.787188 47.0661 1.42024C47.0081 1.48412 47.0022 1.52478 47.0661 1.59447C47.3391 1.88486 47.4494 2.23332 47.3797 2.63406C47.2578 3.29614 46.6596 3.70849 45.9801 3.59815C45.3528 3.49942 44.9173 2.87218 45.0276 2.22752C45.045 2.12298 45.0276 2.07651 44.9173 2.04167C44.4701 1.9197 44.0171 1.78613 43.5699 1.66416C43.2969 1.58866 43.0297 1.48993 42.7452 1.44347C42.7335 1.49574 42.7684 1.53639 42.7916 1.58285C43.233 2.48306 43.6802 3.37745 44.1274 4.27766C44.4643 4.95716 44.8011 5.63667 45.138 6.31618C43.3898 7.78555 41.5952 9.69049 40.4917 11.0844C40.4337 11.1541 40.3814 11.2296 40.3291 11.2934C40.3001 11.3283 40.2769 11.3573 40.2536 11.3922C40.2072 11.4561 40.1665 11.5141 40.12 11.5722C40.0968 11.6071 40.0736 11.6419 40.0445 11.6709C40.0271 11.6942 40.0155 11.7174 39.9981 11.7406C39.458 12.5015 39.0805 13.1752 38.8133 13.7559C38.8133 13.7559 38.8133 13.7617 38.8017 13.7676C38.7901 13.7966 38.7785 13.8198 38.7726 13.8489C38.6507 14.1218 38.5578 14.3774 38.4823 14.6039L25.5367 19.825C24.863 19.5985 24.1603 19.4185 23.4866 19.2733C21.7327 18.9713 19.6303 19.1746 17.7485 19.9064C11.6504 22.2701 8.6652 27.8746 7.20164 32.8751C7.0216 33.4907 6.86479 34.0947 6.7254 34.6871C6.69056 34.8497 6.6499 35.0123 6.61506 35.1692L4.81465 43.2187C4.19322 43.8866 3.39175 44.8275 2.74128 45.8729C1.49261 47.8765 0.209092 51.4716 0.0348592 52.1104C-0.267145 53.1965 1.67265 54.8923 1.67265 54.8923H12.0569C12.8003 53.0396 10.7328 52.2904 10.1171 51.6284C9.50151 50.9663 13.2766 49.6711 14.5717 47.2842C15.8668 44.8972 15.9133 43.3349 15.9133 43.3349C18.4222 42.5276 19.7232 40.7736 20.5014 39.0139C20.6176 38.7467 20.7163 38.4854 20.815 38.2298L21.7907 35.7964L23.0162 36.2901C23.3298 36.4469 23.6608 36.5804 24.0093 36.6908C27.7611 37.9278 33.1101 36.7198 36.4089 35.0588C37.4543 34.5303 39.4754 33.0958 41.2758 31.7542L45.0392 29.1349C45.7071 29.5356 46.5783 30.0409 47.0255 31.3651C47.5133 32.817 46.5841 34.8962 46.4389 37.1206C46.0498 43.12 51.0096 49.3053 51.8982 49.8918C52.6474 50.3913 52.6764 50.9953 52.6125 51.338H52.5487L50.6205 50.5307C50.6205 50.5307 50.6089 50.5307 50.6031 50.5249C50.4695 50.4726 50.3185 50.4668 50.2314 50.4668C49.4415 50.4668 49.0698 53.5565 51.8982 54.8807H55.1622C55.1622 54.8807 57.1368 54.6194 58.6352 52.2788C60.575 49.2472 59.094 39.1184 57.706 37.3703C56.9103 36.3598 55.2028 31.2954 55.8591 29.8028V29.826Z" fill="white"/>
</g>
</g>
</svg>
